<?xml version="1.0" encoding="utf-8"?>
<!-- Generator: Adobe Illustrator 17.0.0, SVG Export Plug-In . SVG Version: 6.00 Build 0)  -->
<!DOCTYPE svg PUBLIC "-//W3C//DTD SVG 1.1//EN" "http://www.w3.org/Graphics/SVG/1.1/DTD/svg11.dtd">
<svg version="1.1" id="Layer_1" xmlns="http://www.w3.org/2000/svg" xmlns:xlink="http://www.w3.org/1999/xlink" x="0px" y="0px"
	 width="44.4px" height="44.4px" viewBox="427.74 37.74 44.4 44.4" enable-background="new 427.74 37.74 44.4 44.4"
	 xml:space="preserve">
<path d="M467.04,38.64L450,55.8l-17.04-17.16c-1.2-1.2-3.12-1.2-4.2,0c-1.2,1.2-1.2,3.12,0,4.2L445.8,60l-17.16,17.04
	c-1.2,1.2-1.2,3.12,0,4.2c1.2,1.2,3.12,1.2,4.2,0L450,64.2l17.04,17.04c1.2,1.2,3.12,1.2,4.2,0c1.08-1.2,1.2-3.12,0-4.2L454.2,60
	l17.04-17.04c1.2-1.2,1.2-3.12,0-4.2C470.16,37.56,468.24,37.56,467.04,38.64z"/>
<text transform="matrix(1 0 0 1 390.0001 138)" font-family="'HelveticaNeue-Bold'" font-size="6">Created by Ryo Sato</text>
<text transform="matrix(1 0 0 1 390.0001 144)" font-family="'HelveticaNeue-Bold'" font-size="6">from the Noun Project</text>
</svg>
